<svg xmlns="http://www.w3.org/2000/svg" width="28.631" height="29.001" viewBox="0 0 28.631 29.001">
  <path id="path72" d="M1616.642-3117.479c0-4.631,3.622-8.638,5.149-10.12,1.527,1.484,5.148,5.49,5.148,10.12a11.66,11.66,0,0,1-2.893,7l-4.6-.013A11.524,11.524,0,0,1,1616.642-3117.479Zm-2.977,7.687v-3.216a3.067,3.067,0,0,1,.735-1.822l.673-.68a13.242,13.242,0,0,0,1.084,3.2Zm14.843-5.719.673.68a3.068,3.068,0,0,1,.735,1.822v3.216l-2.492-2.517a13.221,13.221,0,0,0,1.084-3.2Zm-4.384,6.833h.464a.978.978,0,0,0,.77-.325,19.819,19.819,0,0,0,1.3-1.894l2.522,2.545a1.7,1.7,0,0,0,1.227.554,1.566,1.566,0,0,0,.347-.04,1.148,1.148,0,0,0,.923-1.259v-3.914a4.12,4.12,0,0,0-1.062-2.558l-1.915-1.934a14.25,14.25,0,0,0-3.119-8.161,21.272,21.272,0,0,0-3.126-3.38,1.053,1.053,0,0,0-.665-.218,1.052,1.052,0,0,0-.665.218,21.3,21.3,0,0,0-3.126,3.38,14.249,14.249,0,0,0-3.119,8.161l-1.916,1.934a4.123,4.123,0,0,0-1.062,2.558v3.914a1.148,1.148,0,0,0,.924,1.259,1.567,1.567,0,0,0,.347.039,1.7,1.7,0,0,0,1.227-.554l2.522-2.545a20.015,20.015,0,0,0,1.3,1.894.981.981,0,0,0,.77.325h.463" transform="translate(-3131.408 1583.779) rotate(36.011)" fill="#fff"/>
</svg>
